G04 Layer_Color=8388736*
%FSLAX24Y24*%
%MOIN*%
G70*
G01*
G75*
%ADD33O,0.0146X0.0791*%
%ADD34O,0.0482X0.0867*%
%ADD35O,0.0678X0.0982*%
%ADD36R,0.0316X0.0277*%
%ADD37R,0.0277X0.0316*%
%ADD38O,0.0946X0.0316*%
%ADD39R,0.0356X0.0434*%
%ADD40R,0.1143X0.1143*%
%ADD41O,0.0198X0.0415*%
%ADD42O,0.0415X0.0198*%
%ADD43R,0.0380X0.0380*%
%ADD44R,0.0474X0.0316*%
G04:AMPARAMS|DCode=45|XSize=55.2mil|YSize=71mil|CornerRadius=15.8mil|HoleSize=0mil|Usage=FLASHONLY|Rotation=0.000|XOffset=0mil|YOffset=0mil|HoleType=Round|Shape=RoundedRectangle|*
%AMROUNDEDRECTD45*
21,1,0.0552,0.0394,0,0,0.0*
21,1,0.0236,0.0710,0,0,0.0*
1,1,0.0316,0.0118,-0.0197*
1,1,0.0316,-0.0118,-0.0197*
1,1,0.0316,-0.0118,0.0197*
1,1,0.0316,0.0118,0.0197*
%
%ADD45ROUNDEDRECTD45*%
G04:AMPARAMS|DCode=46|XSize=55.2mil|YSize=98.6mil|CornerRadius=15.8mil|HoleSize=0mil|Usage=FLASHONLY|Rotation=0.000|XOffset=0mil|YOffset=0mil|HoleType=Round|Shape=RoundedRectangle|*
%AMROUNDEDRECTD46*
21,1,0.0552,0.0669,0,0,0.0*
21,1,0.0236,0.0986,0,0,0.0*
1,1,0.0316,0.0118,-0.0335*
1,1,0.0316,-0.0118,-0.0335*
1,1,0.0316,-0.0118,0.0335*
1,1,0.0316,0.0118,0.0335*
%
%ADD46ROUNDEDRECTD46*%
%ADD47C,0.0671*%
%ADD48R,0.0671X0.0671*%
%ADD49C,0.1064*%
D33*
X1290Y10280D02*
D03*
X1447D02*
D03*
X1605D02*
D03*
X1762D02*
D03*
X1920D02*
D03*
X2077D02*
D03*
X2235D02*
D03*
X2392D02*
D03*
X2550D02*
D03*
X2707D02*
D03*
X2865D02*
D03*
X3022D02*
D03*
X3180D02*
D03*
X3337D02*
D03*
X3495D02*
D03*
X3652D02*
D03*
X3810D02*
D03*
X3967D02*
D03*
X4125D02*
D03*
D34*
X-1230Y10000D02*
D03*
X-2238D02*
D03*
X-3230D02*
D03*
D35*
X9520Y8941D02*
D03*
X6520D02*
D03*
X8520D02*
D03*
X7520D02*
D03*
Y12500D02*
D03*
X8528D02*
D03*
X6520D02*
D03*
X9520D02*
D03*
D36*
X3697Y6340D02*
D03*
X3303D02*
D03*
X8477Y5150D02*
D03*
X8083D02*
D03*
D37*
X6790Y4697D02*
D03*
Y4303D02*
D03*
X5940Y4117D02*
D03*
Y3723D02*
D03*
X2760Y2847D02*
D03*
Y2453D02*
D03*
X9240Y2673D02*
D03*
Y3067D02*
D03*
D38*
X5845Y3150D02*
D03*
Y2650D02*
D03*
Y2150D02*
D03*
Y1650D02*
D03*
X7735Y3150D02*
D03*
Y2650D02*
D03*
Y2150D02*
D03*
Y1650D02*
D03*
D39*
X6125Y5970D02*
D03*
X6715D02*
D03*
X8485Y4570D02*
D03*
X9075D02*
D03*
D40*
X4128Y4276D02*
D03*
D41*
X3744Y5044D02*
D03*
X4000D02*
D03*
X4256D02*
D03*
X4512D02*
D03*
Y3508D02*
D03*
X4256D02*
D03*
X4000D02*
D03*
X3744D02*
D03*
D42*
X4895Y4660D02*
D03*
Y4404D02*
D03*
Y4148D02*
D03*
Y3892D02*
D03*
X3360D02*
D03*
Y4148D02*
D03*
Y4404D02*
D03*
Y4660D02*
D03*
D43*
X4840Y2180D02*
D03*
X3810Y7740D02*
D03*
D44*
X7749Y6494D02*
D03*
Y5746D02*
D03*
X8851Y6120D02*
D03*
D45*
X4843Y10280D02*
D03*
X571D02*
D03*
D46*
Y11323D02*
D03*
X4843D02*
D03*
D47*
X770Y4090D02*
D03*
Y5090D02*
D03*
Y6090D02*
D03*
D48*
Y7090D02*
D03*
D49*
X1919Y720D02*
D03*
X1919Y7810D02*
D03*
X6250D02*
D03*
Y720D02*
D03*
M02*
