G04 Layer_Color=2752767*
%FSLAX24Y24*%
%MOIN*%
G70*
G01*
G75*
%ADD10C,0.0020*%
%ADD11C,0.0027*%
D10*
X4763Y10200D02*
Y10360D01*
X4923D01*
Y10200D01*
X4763D01*
X492D02*
Y10360D01*
X652D01*
Y10200D01*
X492D01*
X770Y4010D02*
X690Y4170D01*
X850D01*
X770Y4010D01*
Y5010D02*
X690Y5170D01*
X850D01*
X770Y5010D01*
Y6010D02*
X690Y6170D01*
X850D01*
X770Y6010D01*
Y7010D02*
X690Y7170D01*
X850D01*
X770Y7010D01*
X1919Y640D02*
X1959Y680D01*
X1999D01*
X1959Y720D01*
X1999Y760D01*
X1959D01*
X1919Y800D01*
X1879Y760D01*
X1839D01*
X1879Y720D01*
X1839Y680D01*
X1879D01*
X1919Y640D01*
X1919Y7730D02*
X1959Y7770D01*
X1999D01*
X1959Y7810D01*
X1999Y7850D01*
X1959D01*
X1919Y7890D01*
X1879Y7850D01*
X1839D01*
X1879Y7810D01*
X1839Y7770D01*
X1879D01*
X1919Y7730D01*
X6250D02*
X6290Y7770D01*
X6330D01*
X6290Y7810D01*
X6330Y7850D01*
X6290D01*
X6250Y7890D01*
X6210Y7850D01*
X6170D01*
X6210Y7810D01*
X6170Y7770D01*
X6210D01*
X6250Y7730D01*
Y640D02*
X6290Y680D01*
X6330D01*
X6290Y720D01*
X6330Y760D01*
X6290D01*
X6250Y800D01*
X6210Y760D01*
X6170D01*
X6210Y720D01*
X6170Y680D01*
X6210D01*
X6250Y640D01*
X8380Y4030D02*
X8420Y4110D01*
X8380Y4190D01*
X8460Y4150D01*
X8540Y4190D01*
X8500Y4110D01*
X8540Y4030D01*
X8460Y4070D01*
X8380Y4030D01*
X5310Y4020D02*
X5350Y4100D01*
X5310Y4180D01*
X5390Y4140D01*
X5470Y4180D01*
X5430Y4100D01*
X5470Y4020D01*
X5390Y4060D01*
X5310Y4020D01*
X3710Y5570D02*
X3750Y5650D01*
X3710Y5730D01*
X3790Y5690D01*
X3870Y5730D01*
X3830Y5650D01*
X3870Y5570D01*
X3790Y5610D01*
X3710Y5570D01*
X5270Y5890D02*
X5310Y5970D01*
X5270Y6050D01*
X5350Y6010D01*
X5430Y6050D01*
X5390Y5970D01*
X5430Y5890D01*
X5350Y5930D01*
X5270Y5890D01*
X8610Y2030D02*
X8650Y2110D01*
X8610Y2190D01*
X8690Y2150D01*
X8770Y2190D01*
X8730Y2110D01*
X8770Y2030D01*
X8690Y2070D01*
X8610Y2030D01*
X5560Y5390D02*
X5600Y5470D01*
X5560Y5550D01*
X5640Y5510D01*
X5720Y5550D01*
X5680Y5470D01*
X5720Y5390D01*
X5640Y5430D01*
X5560Y5390D01*
X3210Y2300D02*
X3250Y2380D01*
X3210Y2460D01*
X3290Y2420D01*
X3370Y2460D01*
X3330Y2380D01*
X3370Y2300D01*
X3290Y2340D01*
X3210Y2300D01*
X9030Y3720D02*
X9070Y3800D01*
X9030Y3880D01*
X9110Y3840D01*
X9190Y3880D01*
X9150Y3800D01*
X9190Y3720D01*
X9110Y3760D01*
X9030Y3720D01*
X8630Y2490D02*
X8670Y2570D01*
X8630Y2650D01*
X8710Y2610D01*
X8790Y2650D01*
X8750Y2570D01*
X8790Y2490D01*
X8710Y2530D01*
X8630Y2490D01*
X4200Y6910D02*
X4240Y6990D01*
X4200Y7070D01*
X4280Y7030D01*
X4360Y7070D01*
X4320Y6990D01*
X4360Y6910D01*
X4280Y6950D01*
X4200Y6910D01*
X8250Y8170D02*
X8290Y8250D01*
X8250Y8330D01*
X8330Y8290D01*
X8410Y8330D01*
X8370Y8250D01*
X8410Y8170D01*
X8330Y8210D01*
X8250Y8170D01*
X4830Y3000D02*
X4870Y3080D01*
X4830Y3160D01*
X4910Y3120D01*
X4990Y3160D01*
X4950Y3080D01*
X4990Y3000D01*
X4910Y3040D01*
X4830Y3000D01*
X8771Y5444D02*
X8811Y5524D01*
X8771Y5604D01*
X8851Y5564D01*
X8931Y5604D01*
X8891Y5524D01*
X8931Y5444D01*
X8851Y5484D01*
X8771Y5444D01*
X6320Y4190D02*
X6360Y4270D01*
X6320Y4350D01*
X6400Y4310D01*
X6480Y4350D01*
X6440Y4270D01*
X6480Y4190D01*
X6400Y4230D01*
X6320Y4190D01*
X7140Y5660D02*
X7180Y5740D01*
X7140Y5820D01*
X7220Y5780D01*
X7300Y5820D01*
X7260Y5740D01*
X7300Y5660D01*
X7220Y5700D01*
X7140Y5660D01*
X4170Y8680D02*
X4210Y8760D01*
X4170Y8840D01*
X4250Y8800D01*
X4330Y8840D01*
X4290Y8760D01*
X4330Y8680D01*
X4250Y8720D01*
X4170Y8680D01*
X4650Y7970D02*
X4690Y8050D01*
X4650Y8130D01*
X4730Y8090D01*
X4810Y8130D01*
X4770Y8050D01*
X4810Y7970D01*
X4730Y8010D01*
X4650Y7970D01*
X6990Y3680D02*
X7030Y3760D01*
X6990Y3840D01*
X7070Y3800D01*
X7150Y3840D01*
X7110Y3760D01*
X7150Y3680D01*
X7070Y3720D01*
X6990Y3680D01*
X5080Y2570D02*
X5120Y2650D01*
X5080Y2730D01*
X5160Y2690D01*
X5240Y2730D01*
X5200Y2650D01*
X5240Y2570D01*
X5160Y2610D01*
X5080Y2570D01*
X2243Y2767D02*
X2283Y2847D01*
X2243Y2927D01*
X2323Y2887D01*
X2403Y2927D01*
X2363Y2847D01*
X2403Y2767D01*
X2323Y2807D01*
X2243Y2767D01*
D11*
X652Y11323D02*
G03*
X652Y11323I-80J0D01*
G01*
X4923D02*
G03*
X4923Y11323I-80J0D01*
G01*
M02*
