G04 Layer_Physical_Order=2*
G04 Layer_Color=12082738*
%FSLAX24Y24*%
%MOIN*%
G70*
G01*
G75*
%ADD10C,0.0100*%
G04:AMPARAMS|DCode=11|XSize=47.2mil|YSize=63mil|CornerRadius=11.8mil|HoleSize=0mil|Usage=FLASHONLY|Rotation=0.000|XOffset=0mil|YOffset=0mil|HoleType=Round|Shape=RoundedRectangle|*
%AMROUNDEDRECTD11*
21,1,0.0472,0.0394,0,0,0.0*
21,1,0.0236,0.0630,0,0,0.0*
1,1,0.0236,0.0118,-0.0197*
1,1,0.0236,-0.0118,-0.0197*
1,1,0.0236,-0.0118,0.0197*
1,1,0.0236,0.0118,0.0197*
%
%ADD11ROUNDEDRECTD11*%
G04:AMPARAMS|DCode=12|XSize=47.2mil|YSize=90.6mil|CornerRadius=11.8mil|HoleSize=0mil|Usage=FLASHONLY|Rotation=0.000|XOffset=0mil|YOffset=0mil|HoleType=Round|Shape=RoundedRectangle|*
%AMROUNDEDRECTD12*
21,1,0.0472,0.0669,0,0,0.0*
21,1,0.0236,0.0906,0,0,0.0*
1,1,0.0236,0.0118,-0.0335*
1,1,0.0236,-0.0118,-0.0335*
1,1,0.0236,-0.0118,0.0335*
1,1,0.0236,0.0118,0.0335*
%
%ADD12ROUNDEDRECTD12*%
%ADD13C,0.0591*%
%ADD14R,0.0591X0.0591*%
%ADD15C,0.0984*%
%ADD16C,0.0300*%
G36*
X981Y6300D02*
X1006Y6285D01*
X1030Y6274D01*
X1053Y6267D01*
X1075Y6264D01*
X1097Y6265D01*
X1118Y6269D01*
X1138Y6278D01*
X1157Y6290D01*
X1176Y6307D01*
X1188Y6177D01*
X1180Y6168D01*
X1169Y6155D01*
X1127Y6097D01*
X1020Y5933D01*
X956Y6319D01*
X981Y6300D01*
D02*
G37*
G36*
X10367Y153D02*
X6975D01*
X6896Y246D01*
X6836Y403D01*
X6868Y481D01*
Y496D01*
X6876Y508D01*
X6878Y529D01*
X6882Y536D01*
Y551D01*
X6889Y563D01*
X6903Y670D01*
X6901Y677D01*
X6904Y684D01*
Y756D01*
X6901Y763D01*
X6903Y770D01*
X6889Y877D01*
X6882Y889D01*
Y904D01*
X6827Y1037D01*
X6816Y1047D01*
X6812Y1061D01*
X6725Y1175D01*
X6712Y1182D01*
X6705Y1195D01*
X6591Y1282D01*
X6577Y1286D01*
X6567Y1297D01*
X6434Y1352D01*
X6419D01*
X6407Y1359D01*
X6300Y1373D01*
X6293Y1371D01*
X6286Y1374D01*
X6214D01*
X6207Y1371D01*
X6200Y1373D01*
X6093Y1359D01*
X6086Y1355D01*
X6083Y1354D01*
X6078Y1352D01*
X6066D01*
X5933Y1297D01*
X5933Y1296D01*
X5931Y1295D01*
X5922Y1286D01*
X5909Y1282D01*
X5908Y1282D01*
X5907Y1281D01*
X5800Y1200D01*
X5800Y1199D01*
X5795Y1195D01*
X5789Y1185D01*
X5780Y1180D01*
X5778Y1177D01*
X5775Y1175D01*
X5688Y1061D01*
X5684Y1047D01*
X5673Y1037D01*
X5618Y904D01*
Y889D01*
X5611Y877D01*
X5597Y770D01*
X5599Y763D01*
X5596Y756D01*
Y684D01*
X5599Y677D01*
X5597Y670D01*
X5611Y563D01*
X5618Y551D01*
Y536D01*
X5673Y403D01*
X5674Y403D01*
X5681Y387D01*
X5670Y336D01*
X5650Y302D01*
X5540Y153D01*
X2593D01*
X2462Y390D01*
X2464Y403D01*
X2464Y405D01*
X2475Y416D01*
X2527Y542D01*
Y557D01*
X2535Y570D01*
X2548Y672D01*
X2547Y677D01*
X2547Y681D01*
X2547Y682D01*
X2549Y686D01*
Y754D01*
X2548Y756D01*
Y764D01*
X2547Y766D01*
X2548Y768D01*
X2547Y777D01*
X2547Y778D01*
X2534Y880D01*
X2527Y891D01*
Y898D01*
X2527Y899D01*
Y907D01*
X2474Y1034D01*
X2464Y1044D01*
X2460Y1058D01*
X2377Y1167D01*
X2364Y1174D01*
X2357Y1187D01*
X2248Y1270D01*
X2234Y1274D01*
X2224Y1284D01*
X2097Y1337D01*
X2083D01*
X2070Y1344D01*
X1968Y1357D01*
X1961Y1355D01*
X1954Y1358D01*
X1867D01*
X1860Y1355D01*
X1852Y1357D01*
X1753Y1344D01*
X1740Y1337D01*
X1725D01*
X1601Y1285D01*
X1591Y1275D01*
X1577Y1271D01*
X1470Y1190D01*
X1463Y1177D01*
X1450Y1170D01*
X1369Y1063D01*
X1365Y1049D01*
X1355Y1039D01*
X1303Y915D01*
Y900D01*
X1296Y887D01*
X1283Y788D01*
X1285Y780D01*
X1282Y773D01*
Y677D01*
X1285Y670D01*
X1283Y662D01*
X1296Y563D01*
X1303Y550D01*
Y535D01*
X1355Y411D01*
X1363Y403D01*
X1363Y377D01*
X1233Y153D01*
X257D01*
Y3697D01*
X402Y3766D01*
X507Y3791D01*
X616Y3718D01*
X770Y3687D01*
X924Y3718D01*
X1055Y3805D01*
X1142Y3936D01*
X1173Y4090D01*
X1147Y4221D01*
X2473Y5547D01*
X3534D01*
X3545Y5542D01*
X3555Y5541D01*
X3556Y5541D01*
X3558Y5536D01*
X3574Y5523D01*
X3610Y5470D01*
X3692Y5415D01*
X3790Y5395D01*
X3888Y5415D01*
X3970Y5470D01*
X4018Y5542D01*
X4029Y5553D01*
X4285Y5629D01*
X5237Y4677D01*
Y4298D01*
X5210Y4280D01*
X5155Y4198D01*
X5135Y4100D01*
X4979Y3894D01*
X4945Y3873D01*
X4630D01*
X4571Y3861D01*
X4522Y3828D01*
X3322Y2628D01*
X3290Y2635D01*
X3192Y2616D01*
X3110Y2560D01*
X3054Y2478D01*
X3035Y2380D01*
X3054Y2282D01*
X3110Y2200D01*
X3192Y2145D01*
X3290Y2125D01*
X3388Y2145D01*
X3470Y2200D01*
X3525Y2282D01*
X3545Y2380D01*
X3538Y2412D01*
X4515Y3388D01*
X4709Y3229D01*
X4674Y3178D01*
X4665Y3130D01*
X4910D01*
Y3030D01*
X4665D01*
X4674Y2982D01*
X4730Y2900D01*
X4812Y2844D01*
X4905Y2650D01*
X4924Y2552D01*
X4980Y2470D01*
X5062Y2415D01*
X5160Y2395D01*
X5258Y2415D01*
X5340Y2470D01*
X5395Y2552D01*
X5397Y2561D01*
X6575Y3739D01*
X6831Y3663D01*
X6842Y3652D01*
X6890Y3580D01*
X6972Y3525D01*
X7020Y3515D01*
Y3760D01*
X7070D01*
Y3810D01*
X7315D01*
X7305Y3858D01*
X7250Y3940D01*
X7178Y3988D01*
X7167Y3999D01*
X7091Y4255D01*
X7268Y4432D01*
X7301Y4481D01*
X7313Y4540D01*
Y5504D01*
X7318Y5505D01*
X7400Y5560D01*
X7455Y5642D01*
X7475Y5740D01*
X7455Y5838D01*
X7400Y5920D01*
X7318Y5975D01*
X7220Y5995D01*
X7122Y5975D01*
X7040Y5920D01*
X6985Y5838D01*
X6965Y5740D01*
X6985Y5642D01*
X7007Y5609D01*
Y4603D01*
X6856Y4453D01*
X6851Y4451D01*
X6781Y4451D01*
X6553Y4672D01*
Y5300D01*
X6541Y5359D01*
X6508Y5408D01*
X5838Y6078D01*
X5789Y6111D01*
X5730Y6123D01*
X5548D01*
X5530Y6150D01*
X5448Y6205D01*
X5350Y6225D01*
X5252Y6205D01*
X5170Y6150D01*
X5114Y6068D01*
X5095Y5970D01*
X5114Y5872D01*
X5170Y5790D01*
X5243Y5741D01*
X5288Y5693D01*
X5367Y5599D01*
X5379Y5520D01*
X5640D01*
Y5470D01*
X5690D01*
Y5225D01*
X5738Y5235D01*
X5820Y5290D01*
X6071Y5339D01*
X6247Y5210D01*
Y4468D01*
X6220Y4450D01*
X6165Y4368D01*
X6145Y4270D01*
X6152Y4238D01*
X5872Y3958D01*
X5665Y4068D01*
X5645Y4100D01*
X5625Y4198D01*
X5570Y4280D01*
X5543Y4298D01*
Y4740D01*
X5531Y4799D01*
X5498Y4848D01*
X4088Y6258D01*
X4064Y6274D01*
X4045Y6341D01*
X4042Y6378D01*
X4048Y6542D01*
X4248Y6742D01*
X4280Y6735D01*
X4378Y6755D01*
X4460Y6810D01*
X4516Y6892D01*
X4535Y6990D01*
X4516Y7088D01*
X4460Y7170D01*
X4403Y7209D01*
Y7674D01*
X4620Y7807D01*
X4653Y7810D01*
X4680Y7805D01*
Y8050D01*
Y8337D01*
X4500Y8465D01*
X4476Y8648D01*
X4485Y8662D01*
X4505Y8760D01*
X4485Y8858D01*
X4430Y8940D01*
X4348Y8995D01*
X4250Y9015D01*
X4152Y8995D01*
X4070Y8940D01*
X4015Y8858D01*
X3995Y8760D01*
X4015Y8662D01*
X4070Y8580D01*
X4097Y8562D01*
Y7166D01*
X4044Y7088D01*
X4025Y6990D01*
X3857Y6803D01*
X1590D01*
X1531Y6791D01*
X1482Y6758D01*
X1413Y6689D01*
X1165Y6795D01*
Y7040D01*
X770D01*
Y7090D01*
X720D01*
Y7485D01*
X507D01*
X375Y7485D01*
X257Y7686D01*
Y8408D01*
X63D01*
X59Y8411D01*
X0Y8423D01*
X-4041D01*
Y8533D01*
X-4041Y12960D01*
X10367Y12960D01*
Y153D01*
D02*
G37*
G36*
X1171Y5320D02*
X1160Y5307D01*
X1148Y5290D01*
X1137Y5270D01*
X1126Y5245D01*
X1103Y5186D01*
X1092Y5150D01*
X1057Y5022D01*
X844Y5376D01*
X881Y5367D01*
X916Y5361D01*
X949Y5358D01*
X980Y5357D01*
X1008Y5359D01*
X1035Y5364D01*
X1059Y5371D01*
X1081Y5381D01*
X1101Y5394D01*
X1118Y5409D01*
X1171Y5320D01*
D02*
G37*
G36*
X3654Y5587D02*
X3648Y5599D01*
X3640Y5609D01*
X3632Y5619D01*
X3623Y5627D01*
X3613Y5634D01*
X3602Y5640D01*
X3591Y5644D01*
X3578Y5647D01*
X3564Y5649D01*
X3550Y5650D01*
X3588Y5750D01*
X3601Y5750D01*
X3628Y5753D01*
X3641Y5756D01*
X3668Y5762D01*
X3682Y5767D01*
X3710Y5778D01*
X3724Y5785D01*
X3654Y5587D01*
D02*
G37*
%LPC*%
G36*
X5590Y5420D02*
X5395D01*
X5405Y5372D01*
X5460Y5290D01*
X5542Y5235D01*
X5590Y5225D01*
Y5420D01*
D02*
G37*
G36*
X7315Y3710D02*
X7120D01*
Y3515D01*
X7168Y3525D01*
X7250Y3580D01*
X7305Y3662D01*
X7315Y3710D01*
D02*
G37*
G36*
X8801Y5474D02*
X8606D01*
X8616Y5427D01*
X8671Y5344D01*
X8754Y5289D01*
X8801Y5279D01*
Y5474D01*
D02*
G37*
G36*
X4961Y11829D02*
X4725D01*
X4659Y11816D01*
X4604Y11779D01*
X4567Y11724D01*
X4554Y11658D01*
Y10989D01*
X4567Y10923D01*
X4604Y10867D01*
X4613Y10830D01*
Y10636D01*
X4604Y10598D01*
X4567Y10542D01*
X4554Y10477D01*
Y10083D01*
X4567Y10018D01*
X4604Y9962D01*
X4659Y9925D01*
X4725Y9912D01*
X4961D01*
X5027Y9925D01*
X5082Y9962D01*
X5120Y10018D01*
X5133Y10083D01*
Y10477D01*
X5120Y10542D01*
X5082Y10598D01*
X5073Y10636D01*
Y10830D01*
X5082Y10867D01*
X5120Y10923D01*
X5133Y10989D01*
Y11658D01*
X5120Y11724D01*
X5082Y11779D01*
X5027Y11816D01*
X4961Y11829D01*
D02*
G37*
G36*
X9096Y5474D02*
X8901D01*
Y5279D01*
X8949Y5289D01*
X9031Y5344D01*
X9087Y5427D01*
X9096Y5474D01*
D02*
G37*
G36*
X2273Y2797D02*
X2078D01*
X2088Y2749D01*
X2143Y2667D01*
X2226Y2611D01*
X2273Y2602D01*
Y2797D01*
D02*
G37*
G36*
X8460Y4365D02*
X8362Y4345D01*
X8280Y4290D01*
X8225Y4208D01*
X8205Y4110D01*
X8225Y4012D01*
X8280Y3930D01*
X8362Y3875D01*
X8460Y3855D01*
X8557Y3635D01*
Y2768D01*
X8530Y2750D01*
X8475Y2668D01*
X8455Y2570D01*
X8475Y2472D01*
X8475Y2472D01*
X8530Y2390D01*
X8510Y2290D01*
X8455Y2208D01*
X8435Y2110D01*
X8455Y2012D01*
X8510Y1930D01*
X8592Y1875D01*
X8690Y1855D01*
X8788Y1875D01*
X8870Y1930D01*
X8925Y2012D01*
X8927Y2021D01*
X9228Y2322D01*
X9261Y2371D01*
X9273Y2430D01*
Y3608D01*
X9290Y3620D01*
X9345Y3702D01*
X9365Y3800D01*
X9345Y3898D01*
X9290Y3980D01*
X9208Y4035D01*
X9110Y4055D01*
X9035Y4040D01*
X9012Y4035D01*
X9012Y4035D01*
X8930Y3980D01*
X8705Y4061D01*
X8715Y4110D01*
X8695Y4208D01*
X8640Y4290D01*
X8558Y4345D01*
X8460Y4365D01*
D02*
G37*
G36*
X2568Y2797D02*
X2373D01*
Y2602D01*
X2421Y2611D01*
X2503Y2667D01*
X2559Y2749D01*
X2568Y2797D01*
D02*
G37*
G36*
X2373Y3092D02*
Y2897D01*
X2568D01*
X2559Y2944D01*
X2503Y3027D01*
X2421Y3082D01*
X2373Y3092D01*
D02*
G37*
G36*
X2273D02*
X2226Y3082D01*
X2143Y3027D01*
X2088Y2944D01*
X2078Y2897D01*
X2273D01*
Y3092D01*
D02*
G37*
G36*
X8801Y5769D02*
X8754Y5760D01*
X8671Y5705D01*
X8616Y5622D01*
X8606Y5574D01*
X8801D01*
Y5769D01*
D02*
G37*
G36*
X8575Y8200D02*
X8380D01*
Y8005D01*
X8428Y8015D01*
X8510Y8070D01*
X8565Y8152D01*
X8575Y8200D01*
D02*
G37*
G36*
X8280D02*
X8085D01*
X8095Y8152D01*
X8150Y8070D01*
X8232Y8015D01*
X8280Y8005D01*
Y8200D01*
D02*
G37*
G36*
X4780Y8295D02*
Y8100D01*
X4975D01*
X4965Y8148D01*
X4910Y8230D01*
X4828Y8285D01*
X4780Y8295D01*
D02*
G37*
G36*
X8380Y8495D02*
Y8300D01*
X8575D01*
X8565Y8348D01*
X8510Y8430D01*
X8428Y8485D01*
X8380Y8495D01*
D02*
G37*
G36*
X8280D02*
X8232Y8485D01*
X8150Y8430D01*
X8095Y8348D01*
X8085Y8300D01*
X8280D01*
Y8495D01*
D02*
G37*
G36*
X690Y11829D02*
X453D01*
X388Y11816D01*
X332Y11779D01*
X295Y11724D01*
X282Y11658D01*
Y10989D01*
X295Y10923D01*
X332Y10867D01*
X341Y10830D01*
Y10636D01*
X332Y10598D01*
X295Y10542D01*
X282Y10477D01*
Y10083D01*
X295Y10018D01*
X332Y9962D01*
X388Y9925D01*
X453Y9912D01*
X690D01*
X755Y9925D01*
X811Y9962D01*
X848Y10018D01*
X861Y10083D01*
Y10477D01*
X848Y10542D01*
X811Y10598D01*
X802Y10636D01*
Y10830D01*
X811Y10867D01*
X848Y10923D01*
X861Y10989D01*
Y11658D01*
X848Y11724D01*
X811Y11779D01*
X755Y11816D01*
X690Y11829D01*
D02*
G37*
G36*
X8901Y5769D02*
Y5574D01*
X9096D01*
X9087Y5622D01*
X9031Y5705D01*
X8949Y5760D01*
X8901Y5769D01*
D02*
G37*
G36*
X1993Y8458D02*
X1875D01*
X1868Y8455D01*
X1861Y8457D01*
X1758Y8444D01*
X1745Y8436D01*
X1730D01*
X1601Y8383D01*
X1591Y8373D01*
X1577Y8369D01*
X1466Y8284D01*
X1459Y8271D01*
X1446Y8264D01*
X1361Y8153D01*
X1357Y8139D01*
X1347Y8129D01*
X1294Y8000D01*
Y7985D01*
X1286Y7972D01*
X1273Y7869D01*
X1275Y7862D01*
X1272Y7855D01*
Y7812D01*
X1202Y7591D01*
X1154Y7533D01*
X1080Y7485D01*
X986Y7485D01*
X820D01*
Y7140D01*
X1165D01*
Y7266D01*
X1165Y7315D01*
X1350Y7377D01*
X1350Y7377D01*
X1350D01*
X1556Y7272D01*
X1572Y7260D01*
X1586Y7256D01*
X1596Y7246D01*
X1723Y7193D01*
X1737D01*
X1750Y7186D01*
X1852Y7173D01*
X1859Y7175D01*
X1866Y7172D01*
X1937D01*
X1944Y7175D01*
X1951Y7173D01*
X2060Y7187D01*
X2073Y7194D01*
X2088D01*
X2224Y7251D01*
X2234Y7261D01*
X2248Y7265D01*
X2365Y7355D01*
X2373Y7367D01*
X2385Y7375D01*
X2475Y7492D01*
X2479Y7506D01*
X2489Y7516D01*
X2546Y7652D01*
Y7667D01*
X2553Y7680D01*
X2567Y7789D01*
X2565Y7796D01*
X2568Y7803D01*
Y7883D01*
X2565Y7890D01*
X2567Y7897D01*
X2554Y7995D01*
X2547Y8007D01*
Y8022D01*
X2497Y8144D01*
X2486Y8154D01*
X2483Y8168D01*
X2402Y8273D01*
X2390Y8280D01*
X2383Y8292D01*
X2278Y8373D01*
X2264Y8376D01*
X2254Y8387D01*
X2132Y8437D01*
X2117D01*
X2105Y8444D01*
X2007Y8457D01*
X2000Y8455D01*
X1993Y8458D01*
D02*
G37*
G36*
X6284Y8448D02*
X6206D01*
X6199Y8445D01*
X6192Y8447D01*
X6090Y8434D01*
X6077Y8427D01*
X6063D01*
X5936Y8374D01*
X5926Y8364D01*
X5912Y8360D01*
X5803Y8277D01*
X5796Y8264D01*
X5783Y8257D01*
X5700Y8148D01*
X5696Y8134D01*
X5686Y8124D01*
X5633Y7997D01*
Y7983D01*
X5626Y7970D01*
X5613Y7868D01*
X5615Y7861D01*
X5612Y7854D01*
Y7738D01*
X5615Y7731D01*
X5613Y7724D01*
X5625Y7628D01*
X5633Y7615D01*
Y7601D01*
X5682Y7481D01*
X5692Y7471D01*
X5696Y7457D01*
X5775Y7355D01*
X5787Y7347D01*
X5795Y7335D01*
X5897Y7256D01*
X5911Y7252D01*
X5921Y7242D01*
X6041Y7193D01*
X6055D01*
X6068Y7185D01*
X6164Y7173D01*
X6171Y7175D01*
X6178Y7172D01*
X6265D01*
X6272Y7175D01*
X6280Y7173D01*
X6385Y7187D01*
X6389Y7189D01*
X6401Y7191D01*
X6407Y7194D01*
X6412D01*
X6422Y7198D01*
X6429D01*
X6556Y7251D01*
X6567Y7261D01*
X6581Y7265D01*
X6691Y7349D01*
X6698Y7362D01*
X6711Y7369D01*
X6795Y7479D01*
X6799Y7493D01*
X6809Y7504D01*
X6862Y7631D01*
Y7646D01*
X6869Y7659D01*
X6883Y7761D01*
X6881Y7769D01*
X6884Y7776D01*
Y7844D01*
X6881Y7851D01*
X6883Y7859D01*
X6869Y7961D01*
X6862Y7974D01*
Y7989D01*
X6809Y8116D01*
X6806Y8120D01*
X6804Y8124D01*
X6798Y8130D01*
X6795Y8141D01*
X6790Y8147D01*
X6790Y8148D01*
X6707Y8257D01*
X6695Y8264D01*
X6691Y8271D01*
X6690Y8271D01*
X6687Y8277D01*
X6578Y8360D01*
X6564Y8364D01*
X6554Y8374D01*
X6427Y8427D01*
X6413D01*
X6400Y8434D01*
X6298Y8447D01*
X6291Y8445D01*
X6284Y8448D01*
D02*
G37*
G36*
X4975Y8000D02*
X4780D01*
Y7805D01*
X4828Y7815D01*
X4910Y7870D01*
X4965Y7952D01*
X4975Y8000D01*
D02*
G37*
%LPD*%
D10*
X8380Y4170D02*
X8710Y3840D01*
Y2570D02*
Y3840D01*
X4270Y7000D02*
X4280Y6990D01*
X8690Y2110D02*
X8800D01*
X9120Y2430D01*
Y3700D01*
X770Y6020D02*
X960D01*
X4250Y7100D02*
Y8760D01*
X960Y6020D02*
X1590Y6650D01*
X3940D01*
X4280Y6990D01*
X690Y5020D02*
X800D01*
X770Y4060D02*
X2410Y5700D01*
X3790D01*
X5390Y4100D02*
Y4740D01*
X6400Y4270D02*
Y5300D01*
X5730Y5970D02*
X6400Y5300D01*
X5350Y5970D02*
X5730D01*
X7160Y4540D02*
Y5680D01*
X7220Y5740D01*
X3290Y2380D02*
X4630Y3720D01*
X5850D01*
X6400Y4270D01*
X5220Y2600D02*
X7160Y4540D01*
X5170Y2650D02*
X5220Y2600D01*
X5160Y2650D02*
X5170D01*
X800Y5020D02*
X1930Y6150D01*
X3980D01*
X5390Y4740D01*
D11*
X4843Y10280D02*
D03*
X571D02*
D03*
D12*
Y11323D02*
D03*
X4843D02*
D03*
D13*
X770Y4090D02*
D03*
Y5090D02*
D03*
Y6090D02*
D03*
D14*
Y7090D02*
D03*
D15*
X1919Y720D02*
D03*
X1919Y7810D02*
D03*
X6250D02*
D03*
Y720D02*
D03*
D16*
X8460Y4110D02*
D03*
X5390Y4100D02*
D03*
X3790Y5650D02*
D03*
X5350Y5970D02*
D03*
X8690Y2110D02*
D03*
X5640Y5470D02*
D03*
X3290Y2380D02*
D03*
X9110Y3800D02*
D03*
X8710Y2570D02*
D03*
X4280Y6990D02*
D03*
X8330Y8250D02*
D03*
X4910Y3080D02*
D03*
X8851Y5524D02*
D03*
X6400Y4270D02*
D03*
X7220Y5740D02*
D03*
X4250Y8760D02*
D03*
X4730Y8050D02*
D03*
X7070Y3760D02*
D03*
X5160Y2650D02*
D03*
X2323Y2847D02*
D03*
M02*
