G04 Layer_Color=65535*
%FSLAX24Y24*%
%MOIN*%
G70*
G01*
G75*
%ADD10C,0.0100*%
%ADD30C,0.0157*%
%ADD31C,0.0098*%
%ADD32C,0.0079*%
D10*
X-3480Y11800D02*
G03*
X-3480Y11800I-50J0D01*
G01*
X9870Y10700D02*
G03*
X9870Y10700I-50J0D01*
G01*
X120Y10306D02*
Y12550D01*
X5300Y10256D02*
Y12500D01*
X8740Y4920D02*
Y5320D01*
X8940D01*
X9007Y5253D01*
Y5120D01*
X8940Y5053D01*
X8740D01*
X8873D02*
X9007Y4920D01*
X9340D02*
Y5320D01*
X9140Y5120D01*
X9406D01*
X6020Y6340D02*
Y6790D01*
X6245D01*
X6320Y6715D01*
Y6565D01*
X6245Y6490D01*
X6020D01*
X6170D02*
X6320Y6340D01*
X6470Y6715D02*
X6545Y6790D01*
X6695D01*
X6770Y6715D01*
Y6640D01*
X6695Y6565D01*
X6620D01*
X6695D01*
X6770Y6490D01*
Y6415D01*
X6695Y6340D01*
X6545D01*
X6470Y6415D01*
X2480Y2650D02*
X2147D01*
X1980Y2817D01*
X2147Y2983D01*
X2480D01*
X2230D01*
Y2650D01*
X2063Y3483D02*
X1980Y3400D01*
Y3233D01*
X2063Y3150D01*
X2147D01*
X2230Y3233D01*
Y3400D01*
X2313Y3483D01*
X2397D01*
X2480Y3400D01*
Y3233D01*
X2397Y3150D01*
X1980Y3983D02*
Y3650D01*
X2230D01*
X2147Y3816D01*
Y3900D01*
X2230Y3983D01*
X2397D01*
X2480Y3900D01*
Y3733D01*
X2397Y3650D01*
X2063Y4150D02*
X1980Y4233D01*
Y4399D01*
X2063Y4483D01*
X2397D01*
X2480Y4399D01*
Y4233D01*
X2397Y4150D01*
X2063D01*
X1980Y4983D02*
Y4649D01*
X2230D01*
X2147Y4816D01*
Y4899D01*
X2230Y4983D01*
X2397D01*
X2480Y4899D01*
Y4733D01*
X2397Y4649D01*
X2063Y5149D02*
X1980Y5232D01*
Y5399D01*
X2063Y5482D01*
X2397D01*
X2480Y5399D01*
Y5232D01*
X2397Y5149D01*
X2063D01*
X2480Y5649D02*
X2147D01*
X1980Y5816D01*
X2147Y5982D01*
X2480D01*
X2230D01*
Y5649D01*
X2490Y7120D02*
Y6720D01*
X2690D01*
X2757Y6787D01*
Y6853D01*
X2690Y6920D01*
X2490D01*
X2690D01*
X2757Y6987D01*
Y7053D01*
X2690Y7120D01*
X2490D01*
X2890Y6720D02*
Y7120D01*
X3090D01*
X3156Y7053D01*
Y6920D01*
X3090Y6853D01*
X2890D01*
X3290Y6653D02*
X3556D01*
X3956Y7053D02*
X3890Y7120D01*
X3756D01*
X3690Y7053D01*
Y6787D01*
X3756Y6720D01*
X3890D01*
X3956Y6787D01*
X4156Y6987D02*
X4289D01*
X4356Y6920D01*
Y6720D01*
X4156D01*
X4089Y6787D01*
X4156Y6853D01*
X4356D01*
X4489Y6587D02*
Y6987D01*
X4689D01*
X4756Y6920D01*
Y6787D01*
X4689Y6720D01*
X4489D01*
D30*
X6908Y1731D02*
G03*
X6908Y1731I-79J0D01*
G01*
D31*
X7784Y1315D02*
G03*
X7784Y1315I-49J0D01*
G01*
X3045Y5093D02*
G03*
X3045Y5093I-49J0D01*
G01*
X7798Y6829D02*
G03*
X7798Y6829I-49J0D01*
G01*
D32*
X270Y7590D02*
X1270D01*
Y3590D02*
Y7590D01*
X270Y3590D02*
Y7590D01*
Y3590D02*
X1270D01*
X6436Y3384D02*
X7144D01*
X6436Y1416D02*
X7144D01*
X6436D02*
Y3384D01*
X7144Y1416D02*
Y3384D01*
X6341Y6108D02*
X6499D01*
X6341Y5832D02*
X6499D01*
X3252Y3400D02*
X3527D01*
X3252D02*
Y3676D01*
X4728Y3400D02*
X5004D01*
Y3676D01*
Y4877D02*
Y5152D01*
X4728D02*
X5004D01*
X3252D02*
X3527D01*
X3252Y4877D02*
Y5152D01*
X8103Y6730D02*
X8654D01*
Y6396D02*
Y6730D01*
X8103Y5510D02*
X8654D01*
Y5844D01*
X8701Y4708D02*
X8859D01*
X8701Y4432D02*
X8859D01*
M02*
