M48
;Layer_Color=9474304
;FILE_FORMAT=2:4
INCH,LZ
;TYPE=PLATED
T1F00S00C0.0200
T2F00S00C0.0354
;TYPE=NON_PLATED
T3F00S00C0.0984
%
T01
X002323Y002847
X00329Y00238
X00516Y00265
X00491Y00308
X00539Y0041
X0064Y00427
X00707Y00376
X00846Y00411
X00911Y0038
X00871Y00257
X00869Y00211
X008851Y005524
X00722Y00574
X00564Y00547
X00535Y00597
X00379Y00565
X00428Y00699
X00473Y00805
X00425Y00876
X00833Y00825
T02
X00077Y00409
Y00509
Y00609
Y00709
T03
X001919Y00072
X00625
Y00781
X001919
M30
