G04 Layer_Color=128*
%FSLAX24Y24*%
%MOIN*%
G70*
G01*
G75*
%ADD10C,0.0020*%
D10*
X4725Y10280D02*
X4961D01*
X4843Y10162D02*
Y10398D01*
X453Y10280D02*
X690D01*
X571Y10162D02*
Y10398D01*
X453Y11323D02*
X690D01*
X571Y11205D02*
Y11441D01*
X4725Y11323D02*
X4961D01*
X4843Y11205D02*
Y11441D01*
X593Y4090D02*
X947D01*
X770Y3913D02*
Y4267D01*
X593Y5090D02*
X947D01*
X770Y4913D02*
Y5267D01*
X593Y6090D02*
X947D01*
X770Y5913D02*
Y6267D01*
X593Y7090D02*
X947D01*
X770Y6913D02*
Y7267D01*
X1427Y720D02*
X2411D01*
X1919Y228D02*
Y1212D01*
X1427Y7810D02*
X2411D01*
X1919Y7318D02*
Y8302D01*
X5758Y7810D02*
X6742D01*
X6250Y7318D02*
Y8302D01*
X5758Y720D02*
X6742D01*
X6250Y228D02*
Y1212D01*
X8360Y4110D02*
X8560D01*
X8460Y4010D02*
Y4210D01*
X5290Y4100D02*
X5490D01*
X5390Y4000D02*
Y4200D01*
X3690Y5650D02*
X3890D01*
X3790Y5550D02*
Y5750D01*
X5250Y5970D02*
X5450D01*
X5350Y5870D02*
Y6070D01*
X8590Y2110D02*
X8790D01*
X8690Y2010D02*
Y2210D01*
X5540Y5470D02*
X5740D01*
X5640Y5370D02*
Y5570D01*
X3190Y2380D02*
X3390D01*
X3290Y2280D02*
Y2480D01*
X9010Y3800D02*
X9210D01*
X9110Y3700D02*
Y3900D01*
X8610Y2570D02*
X8810D01*
X8710Y2470D02*
Y2670D01*
X4180Y6990D02*
X4380D01*
X4280Y6890D02*
Y7090D01*
X8230Y8250D02*
X8430D01*
X8330Y8150D02*
Y8350D01*
X4810Y3080D02*
X5010D01*
X4910Y2980D02*
Y3180D01*
X8751Y5524D02*
X8951D01*
X8851Y5424D02*
Y5624D01*
X6300Y4270D02*
X6500D01*
X6400Y4170D02*
Y4370D01*
X7120Y5740D02*
X7320D01*
X7220Y5640D02*
Y5840D01*
X4150Y8760D02*
X4350D01*
X4250Y8660D02*
Y8860D01*
X4630Y8050D02*
X4830D01*
X4730Y7950D02*
Y8150D01*
X6970Y3760D02*
X7170D01*
X7070Y3660D02*
Y3860D01*
X5060Y2650D02*
X5260D01*
X5160Y2550D02*
Y2750D01*
X2223Y2847D02*
X2423D01*
X2323Y2747D02*
Y2947D01*
M02*
